PathFileType	4	(X/Y/Z)	s11c0001.trc
DataRate	CameraRate	NumFrames	NumMarkers	Units	OrigDataRate	OrigDataStartFrame	OrigNumFrames
200	200	4	49	mm	200	250	2000
Frame#	Time	racr			lacr			c7			jug			rlel			rdr			llel			ldr			s2			lic			ric			lasi			rasi			rpsi			lpsi			rgt			lgt			rth1			rth2			rth3			rth4			rlfc			rmfc			rsh1			rsh2			rsh3			rsh4			rlmal			rmmal			rcal			rtoe			rmt5			rmt1			lth1			lth2			lth4			lth3			llfc			lmfc			llmal			lmmal			lcal			lmt1			lmt5			lsh1			lsh2			lsh3			lsh4			ltoe			
		X1	Y1	Z1	X2	Y2	Z2	X3	Y3	Z3	X4	Y4	Z4	X5	Y5	Z5	X6	Y6	Z6	X7	Y7	Z7	X8	Y8	Z8	X9	Y9	Z9	X10	Y10	Z10	X11	Y11	Z11	X12	Y12	Z12	X13	Y13	Z13	X14	Y14	Z14	X15	Y15	Z15	X16	Y16	Z16	X17	Y17	Z17	X18	Y18	Z18	X19	Y19	Z19	X20	Y20	Z20	X21	Y21	Z21	X22	Y22	Z22	X23	Y23	Z23	X24	Y24	Z24	X25	Y25	Z25	X26	Y26	Z26	X27	Y27	Z27	X28	Y28	Z28	X29	Y29	Z29	X30	Y30	Z30	X31	Y31	Z31	X32	Y32	Z32	X33	Y33	Z33	X34	Y34	Z34	X35	Y35	Z35	X36	Y36	Z36	X37	Y37	Z37	X38	Y38	Z38	X39	Y39	Z39	X40	Y40	Z40	X41	Y41	Z41	X42	Y42	Z42	X43	Y43	Z43	X44	Y44	Z44	X45	Y45	Z45	X46	Y46	Z46	X47	Y47	Z47	X48	Y48	Z48	X49	Y49	Z49	
250	1.2500	483.911285	1568.658203	591.433472	455.795197	1596.339233	178.245895	389.950195	1619.516357	384.777222	552.840515	1560.075684	367.267059	485.919586	1310.118652	740.856201	616.593140	1083.764893	886.995056	427.681671	1301.096680	48.224091	554.003235	1062.509521	-128.740875	343.455170	1075.201782	391.687500	513.031616	1162.355957	174.602524	555.321228	1151.319214	566.308350	580.180542	1108.816040	204.174118	611.637756	1111.477295	520.843079	364.985626	1129.989746	446.355072	352.115540	1126.823242	343.645569	508.311188	960.832764	588.041626	445.658020	991.913696	173.055069	518.112976	833.499939	585.201050	538.260864	750.534485	559.813293	514.240967	668.620544	541.454407	572.219177	753.309570	547.440552	509.842407	563.079468	516.296143	504.391418	545.525330	396.601044	463.886993	413.917786	538.625854	478.780334	327.555328	524.750610	448.765747	244.995834	524.659729	505.039124	327.225891	495.730530	431.536896	108.621284	513.388000	463.431946	122.712875	425.902802	386.751007	80.300346	459.296936	667.367676	91.355316	518.987976	591.380981	54.515705	574.054871	609.823303	58.587021	458.445923	474.436981	858.952881	153.388397	493.489075	776.743103	168.396927	529.764832	775.258728	174.061203	466.960480	692.345215	182.572510	461.145660	550.426758	212.645081	475.056549	540.270203	338.805511	405.832123	117.451279	223.353607	436.798096	133.710098	297.525696	369.135651	68.609512	259.838348	592.877869	56.144135	291.998047	569.945129	55.279907	174.886368	423.599152	427.460999	191.924149	442.054596	343.562744	198.995331	416.330048	259.007080	202.653885	473.954834	344.049377	221.251480	660.201782	95.543495	243.937653	
251	1.2550	483.927826	1568.687744	591.384827	455.777130	1596.349609	178.230621	389.950073	1619.521729	384.776337	552.834473	1560.087646	367.234863	485.930450	1310.131592	740.863586	616.638123	1083.821655	887.001953	427.641693	1301.109619	48.247387	553.953674	1062.489380	-128.739197	343.453827	1075.211548	391.702759	512.988159	1162.348389	174.596527	555.322083	1151.310059	566.325317	580.141907	1108.804199	204.150452	611.622131	1111.502686	520.846130	364.985657	1129.989746	446.355042	352.093903	1126.852295	343.671387	508.310059	960.841187	588.047180	445.618652	991.910522	173.047791	518.092468	833.493591	585.204651	538.241394	750.522034	559.813416	514.251526	668.599182	541.458923	572.204224	753.297058	547.445068	509.831421	563.081360	516.300903	504.362488	545.544250	396.588959	463.898193	413.910980	538.613647	478.793091	327.555542	524.778564	448.744446	245.000351	524.670227	505.046753	327.228760	495.724579	431.575073	108.653702	513.401733	463.411560	122.728546	425.888641	386.737366	80.305977	459.295593	667.371887	91.351669	519.003967	591.388855	54.531601	574.043213	609.831177	58.599815	458.458679	474.407715	858.939209	153.413300	493.446747	776.736938	168.404694	529.737244	775.257996	174.070541	466.957916	692.342773	182.585052	461.112213	550.425720	212.646042	475.050385	540.282593	338.808929	405.824249	117.453857	223.343002	436.798096	133.701553	297.516235	369.142731	68.607941	259.837860	592.869263	56.133842	291.987396	569.939209	55.303097	174.885315	423.588715	427.468811	191.911987	442.043610	343.563538	198.991608	416.310852	259.000732	202.654510	473.932159	344.053619	221.249069	660.212830	95.571945	243.954605	
252	1.2600	483.944000	1568.691162	591.373718	455.769196	1596.329956	178.219055	389.931915	1619.527588	384.751495	552.834167	1560.071777	367.218445	485.963501	1310.164185	740.855652	616.678833	1083.851074	886.992371	427.619354	1301.083862	48.256550	553.924011	1062.488525	-128.738205	343.451416	1075.212891	391.725677	512.989563	1162.355835	174.584259	555.279053	1151.298828	566.294434	580.118591	1108.793945	204.167862	611.602539	1111.497681	520.830566	364.950592	1130.022949	446.401001	352.063599	1126.880371	343.664673	508.298340	960.839783	588.043335	445.590851	991.919006	173.059814	518.093140	833.499329	585.202454	538.254150	750.525940	559.800293	514.240173	668.624756	541.467163	572.210815	753.291077	547.441345	509.842407	563.097595	516.322693	504.393463	545.540222	396.602600	463.876343	413.915588	538.636719	478.761658	327.557739	524.772339	448.774048	244.990570	524.654602	505.040527	327.224640	495.728485	431.565704	108.668129	513.389221	463.401642	122.732262	425.887482	386.755249	80.296455	459.299469	667.378174	91.362518	518.988098	591.401611	54.532452	574.054382	609.839844	58.612114	458.471466	474.393646	858.946533	153.416306	493.432434	776.748840	168.436874	529.726318	775.237854	174.107635	466.917023	692.360840	182.562408	461.117249	550.432983	212.652374	475.059570	540.293030	338.796722	405.824860	117.454239	223.345551	436.783081	133.701630	297.514923	369.141174	68.603539	259.837952	592.878967	56.135662	291.988251	569.954163	55.297245	174.881851	423.582855	427.469055	191.928284	442.038849	343.543396	199.012131	416.318268	258.989197	202.670441	473.947876	344.053589	221.260269	660.196960	95.567230	243.941376	
253	1.2650	483.953613	1568.719971	591.362976	455.736725	1596.326294	178.200897	389.938568	1619.523926	384.718109	552.827576	1560.083740	367.204315	485.978699	1310.189575	740.855286	616.730591	1083.937500	887.013306	427.595428	1301.058716	48.241852	553.891113	1062.455688	-128.742859	343.408264	1075.231812	391.755249	512.938904	1162.336792	174.603943	555.292053	1151.325073	566.308350	580.108093	1108.798950	204.155014	611.585815	1111.490234	520.840820	364.952820	1130.009155	446.401611	352.061737	1126.874756	343.667358	508.295441	960.843201	588.056274	445.558716	991.911743	173.089340	518.091553	833.492004	585.220398	538.243530	750.522461	559.804321	514.226562	668.622559	541.463257	572.174255	753.319763	547.441956	509.812286	563.078430	516.311584	504.358612	545.549561	396.595642	463.886536	413.903473	538.624573	478.769135	327.557373	524.776855	448.748444	244.971100	524.662476	505.025513	327.221008	495.729034	431.560760	108.664963	513.396057	463.434998	122.731041	425.894196	386.756836	80.307091	459.300079	667.373352	91.351555	518.999756	591.257019	54.419281	574.066284	609.831604	58.596294	458.470215	474.365021	858.931091	153.425201	493.405273	776.748413	168.438995	529.683594	775.232971	174.080292	466.899597	692.348877	182.579071	461.104523	550.414307	212.664673	475.040405	540.270752	338.811890	405.806305	117.445877	223.343674	436.771362	133.689880	297.517334	369.143463	68.598389	259.821777	592.863770	56.134613	291.991089	569.940308	55.298531	174.886292	423.558105	427.449677	191.921173	442.050964	343.560944	198.993042	416.304474	258.983337	202.660339	473.930084	344.049805	221.252182	660.212280	95.569603	243.941238	
